;030 001BA626
!1  T90 O3 @@4,2,1 V6 EP-4,0,0,3,0 E60,100,100,3,0 H-3 [ d24 < b24 g+24 > ]2 [ d+24 < a24 > ]3 [ d24 < b24 g+24 > ]2 [ c+24 < g24 > ]3 P15,10,6 > H0 c4 _V-2 P0,10,6 EX c4 _V-2 c4 
!2  O3 @@4,2,1 V8 EP-4,0,0,3,0 E60,100,100,3,0 [ d24 < b24 g+24 > ]2 [ d+24 < a24 > ]3 [ d24 < b24 g+24 > ]2 [ c+24 < g24 > ]3 < P15,10,6 > f+4 _V-4 P15,10,6 EX f+4 _V-2 f+4 
!3  V3 `9F00 B1 `2E63 @A3 `AE00 P6,8,12 E100,70,20,8,22 O1 [ V3 d24 V2 d24 d24 ]2 d+12 d+12 d+12 [ V3 d24 V2 d24 d24 ]2 c+12 c+12 c+12 < EX V3 a4 P0,8,12 V2 EX a4 V1 a4 
!4  [ [ @3 x24 @0 x24 x24 ]2 [ @3 x24 @0 x24 ]3 ]2 @8 x2 
!5  @8 O2 V1 [ d24 ]6 d+24 Y.R V0 d+24 V1 YLR d+24 YL. V0 d+24 V1 YLR d+24 Y.R V0 d+24 V1 YLR [ d24 ]6 c+24 Y.R V0 c+24 V1 YLR c+24 Y.R V0 c+24 V1 YLR c+24 Y.R V0 c+24 V1 YLR f+2 
!6  @4 O1 V1 g+12 V0 Y.R g+12 YL. g+12 YLR V1 a12 a12 a12 V1 g+12 V0 Y.R g+12 YL. g+12 YLR V1 g12 g12 g48 V0 g48 g48 g48 @8 f+8 @4 f+32 V0 [ f+32 ]11 V1 f+12 V0 Y.R f+12 YL. f+12 
