;013 0031E7D8
!1  T153 L r1 r2 @2 O3 V5 B4 E90,100,40,3,11 YL. b32~ > g16. < b32~ > g16. < V9 B1 O1 Y.R g32~ > > c32 < < r8. YLR V4 O3 @2 E80,100,30,22,36 D-1 r8 e8.~ _V-3 e16 _V3 g8.~ _V-3 g16 _V3 > c8.~ _V-3 c16 _V3 < g16~ _V-3 g16 _V3 > c16~ _V-3 c16 _V3 < a8.~ _V-3 a16 _V3 f8.~ _V-3 f16 _V3 d16~ _V-3 d16 _V3 e16~ _V-3 e16 _V3 f16~ _V-3 f16 _V3 d16~ _V-3 d16 _V3 g8.~ _V-3 g16 _V3 a8.~ _V-3 a16 _V3 b8.~ _V-3 b16 _V3 g16~ _V-3 g16 _V3 b16~ _V-3 b16 _V3 > d8~ _V-3 d8 _V3 < b8 @2 O3 V5 B4 E90,100,40,3,11 YL. b32~ > g16. < b32~ > g16. < V9 B1 O1 Y.R g32~ > > c32 < < r8. YLR V4 O3 @2 E80,100,30,22,36 D-1 r8 e8.~ _V-3 e16 _V3 g8.~ _V-3 g16 _V3 > c8.~ _V-3 c16 _V3 < g16~ _V-3 g16 _V3 > c16~ _V-3 c16 _V3 < a8.~ _V-3 a16 _V3 g8.~ _V-3 g16 _V3 f16~ _V-3 f16 _V3 g16~ _V-3 g16 _V3 a16~ _V-3 a16 _V3 f16~ _V-3 f16 _V3 d8.~ _V-3 d16 _V3 f8.~ _V-3 f16 _V3 b16~ _V-3 b16 _V3 g16~ _V-3 g16 _V3 a16~ _V-3 a16 _V3 b16~ _V-3 b16 _V3 > c16~ _V-3 c16 _V3 < b16~ _V-3 b16 _V3 a16~ _V-3 a16 _V3 @2 O3 V5 B4 E90,100,40,3,11 YL. b32~ > g16. < b32~ > g16. < V9 B1 O1 Y.R g32~ > > c32 < < r8. YLR V4 O3 @2 E80,100,30,22,36 D-1 r8 a8.~ _V-3 a16 _V3 g+8.~ _V-3 g+16 _V3 a8. b16 > c16~ _V-3 c16 _V3 < a16~ _V-3 a16 _V3 g8.~ _V-3 g16 _V3 f+8.~ _V-3 f+16 _V3 g8. b16 > c16~ _V-3 c16 _V3 < g16~ _V-3 g16 _V3 f8.~ _V-3 f16 _V3 e8.~ _V-3 e16 _V3 f8. g16 a16~ _V-3 a16 _V3 f16~ _V-3 f16 _V3 e16~ _V-3 e16 _V3 d16~ _V-3 d16 _V3 e16~ _V-3 e16 _V3 @2 O3 V5 B4 E90,100,40,3,11 YL. b32~ > g16. < b32~ > g16. < V9 B1 O1 Y.R g32~ > > c32 < < r8. YLR V4 O3 @2 E80,100,30,22,36 D-1 r8 a8.~ _V-3 a16 _V3 g+8.~ _V-3 g+16 _V3 a8. b16 > c16~ _V-3 c16 _V3 < a16~ _V-3 a16 _V3 g8.~ _V-3 g16 _V3 f+8.~ _V-3 f+16 _V3 g8. b16 > c16~ _V-3 c16 _V3 < g16~ _V-3 g16 _V3 f+16~ _V-3 f+16 _V3 f16~ _V-3 f16 _V3 f+16~ _V-3 f+16 _V3 f16~ _V-3 f16 _V3 f+16~ _V-3 f+16 _V3 d16~ _V-3 d16 _V3 e16~ _V-3 e16 _V3 f+16~ _V-3 f+16 _V3 g16~ _V-3 g16 _V3 f+16~ _V-3 f+16 _V3 g16~ _V-3 g16 _V3 a16~ _V-3 a16 _V3 b4. _V-3 b8 _V3 > c8.~ _V-3 c16 _V3 < a8.~ _V-3 a16 _V3 f8. g16 a16~ _V-3 a16 _V3 b16~ _V-3 b16 _V3 > c16~ _V-3 c16 _V3 < b16~ _V-3 b16 _V3 a16~ _V-3 a16 _V3 @2 O3 V5 B4 E90,100,40,3,11 YL. b32~ > g16. < b32~ > g16. < V9 B1 O1 Y.R g32~ > > c32 < < r8. YLR 
!2  L V4 O2 @@3,0,1 E100,90,50,3,36 [ b16 _V-3 b16 _V3 b16 b16 b8. _V-3 b16 _V3 ]2 > d16 _V-3 d16 _V3 c+16 _V-3 c+16 _V3 c16 _V-3 c16 _V3 < b16 _V-3 b16 _V3 a16 _V-3 a16 _V3 r4. V8 O3 @2 E80,100,30,22,36 e8.~ _V-3 e16 _V3 g8.~ _V-3 g16 _V3 > c8.~ _V-3 c16 _V3 < g16~ _V-3 g16 _V3 > c16~ _V-3 c16 _V3 < a8.~ _V-3 a16 _V3 f8.~ _V-3 f16 _V3 d16~ _V-3 d16 _V3 e16~ _V-3 e16 _V3 f16~ _V-3 f16 _V3 d16~ _V-3 d16 _V3 g8.~ _V-3 g16 _V3 a8.~ _V-3 a16 _V3 b8.~ _V-3 b16 _V3 g16~ _V-3 g16 _V3 b16~ _V-3 b16 _V3 > d8~ _V-3 d8 _V3 < b8~ _V-3 b8 _V3 g4~ _V-4 g4 _V4 e8.~ _V-3 e16 _V3 g8.~ _V-3 g16 _V3 > c8.~ _V-3 c16 _V3 < g16~ _V-3 g16 _V3 > c16~ _V-3 c16 _V3 < a8.~ _V-3 a16 _V3 g8.~ _V-3 g16 _V3 f16~ _V-3 f16 _V3 g16~ _V-3 g16 _V3 a16~ _V-3 a16 _V3 f16~ _V-3 f16 _V3 d8.~ _V-3 d16 _V3 f8.~ _V-3 f16 _V3 b16~ _V-3 b16 _V3 g16~ _V-3 g16 _V3 a16~ _V-3 a16 _V3 b16~ _V-3 b16 _V3 > c16~ _V-3 c16 _V3 < b16~ _V-3 b16 _V3 a16~ _V-3 a16 _V3 b16~ _V-3 b16 _V3 > c8~ _V-4 c8 _V4 < r4 a8.~ _V-3 a16 _V3 g+8.~ _V-3 g+16 _V3 a8. b16 > c16~ _V-3 c16 _V3 < a16~ _V-3 a16 _V3 g8.~ _V-3 g16 _V3 f+8.~ _V-3 f+16 _V3 g8. b16 > c16~ _V-3 c16 _V3 < g16~ _V-3 g16 _V3 f8.~ _V-3 f16 _V3 e8.~ _V-3 e16 _V3 f8. g16 a16~ _V-3 a16 _V3 f16~ _V-3 f16 _V3 e16~ _V-3 e16 _V3 d16~ _V-3 d16 _V3 e16~ _V-3 e16 _V3 f16~ _V-3 f16 _V3 g16~ _V-3 g16 _V3 e16~ _V-3 e16 _V3 f16~ _V-3 f16 _V3 g16~ _V-3 g16 _V3 a8.~ _V-3 a16 _V3 g+8.~ _V-3 g+16 _V3 a8. b16 > c16~ _V-3 c16 _V3 < a16~ _V-3 a16 _V3 g8.~ _V-3 g16 _V3 f+8.~ _V-3 f+16 _V3 g8. b16 > c16~ _V-3 c16 _V3 < g16~ _V-3 g16 _V3 f+16~ _V-3 f+16 _V3 f16~ _V-3 f16 _V3 f+16~ _V-3 f+16 _V3 f16~ _V-3 f16 _V3 f+16~ _V-3 f+16 _V3 d16~ _V-3 d16 _V3 e16~ _V-3 e16 _V3 f+16~ _V-3 f+16 _V3 g16~ _V-3 g16 _V3 f+16~ _V-3 f+16 _V3 g16~ _V-3 g16 _V3 a16~ _V-3 a16 _V3 b4. _V-3 b8 _V3 > c8.~ _V-3 c16 _V3 < a8.~ _V-3 a16 _V3 f8. g16 a16~ _V-3 a16 _V3 b16~ _V-3 b16 _V3 > c16~ _V-3 c16 _V3 < b16~ _V-3 b16 _V3 a16~ _V-3 a16 _V3 b16~ _V-3 b16 _V3 > c4 _V-4 c8 _V4 < r8 
!3  L [ r1 ]2 V3 `9F00 @A3 @B0 @~3 O1 c8 ( c8 ) g8 ( g8 ) g8 ( g8 ) c8 ( c8 ) [ f8 ( f8 ) c8 ( c8 ) ]2 [ g8 ( g8 ) < g8 ( g8 ) > ]3 g8 < g8 a8 b8 > c8 ( c8 ) < g8 ( g8 ) > c8 ( c8 ) < g8 > c8 [ f8 ( f8 ) c8 ( c8 ) ]2 [ g8 ( g8 ) d8 ( d8 ) ]2 < g8 ( g8 ) > g8 ( g8 ) c4 ( c4 ) [ f8 ( f8 ) c8 ( c8 ) ]2 [ c8 ( c8 ) g8 ( g8 ) ]2 d8 ( d8 ) d8 ( d8 ) g8 ( g8 ) g8 ( g8 ) [ c8 ( c8 ) ]3 > c8 ( c8 ) < f8 ( f8 ) f8 ( f8 ) f+8 ( f+8 ) f+8 ( f+8 ) g8 ( g8 ) g8 ( g8 ) e8 ( e8 ) e8 ( e8 ) d8 ( d8 ) a8 ( a8 ) a8 ( a8 ) d8 ( d8 ) [ g8 ( g8 ) < g8 ( g8 ) > ]2 f8 ( f8 ) f8 ( f8 ) d8 ( d8 ) d8 ( d8 ) g8 ( g8 ) g8 ( g8 ) c4 ( c4 ) 
!4  L @4 x32 @7 [ x32 ]47 @4 x4 @8 x4~ x8 @3 x8 @6 x8 @3 x8 @1 x8 @3 x8 @6 x8 @3 x8 @1 x8 @3 x8 @6 x8 @3 x8 @1 x8 @3 x8 @6 x8 @3 x16 x16 [ @1 x8 @3 x8 @6 x8 @3 x8 ]2 @1 x8 @3 x8 @6 x8 @3 x8 @3 x16 @4 [ x16 ]3 @3 x8 x16 @4 x16 @8 x4 @6 x8 @3 x8 @1 x8 @3 x8 @6 x8 @3 x8 [ @1 x8 @3 x8 @6 x8 @3 x8 ]2 [ @1 x8 @3 x8 @6 x8 @3 x8 ]2 @1 x8 @3 x8 @6 x8 @3 x8 @1 x8 @3 x8 x8 @4 x16 @3 x16 [ @1 x8 @3 x8 @6 x8 @3 x8 ]2 [ @1 x8 @3 x8 @6 x8 @3 x8 @1 x8 @3 x16 x16 @6 x8 @3 x8 ]2 @1 x8 @3 x8 @6 x8 @3 x8 @3 x16 @4 [ x16 ]3 @8 x8 @3 x16 @4 x16 [ @1 x8 @3 x8 @6 x8 @3 x8 @1 x8 @3 x16 x16 @6 x8 @3 x8 ]2 @8 x4 @6 x8 @3 x8 @1 x8 @3 x8 @6 x8 @3 x8 @8 x4 @6 x8 @3 x8 @1 x8 @3 x16 @4 x16 @6 x8 @3 x8 @8 x4 @6 x8 @3 x8 @1 x8 @3 x8 @6 x8 @3 x8 @8 x8 @3 x16 @4 x16 @6 x8 @3 x8 @8 x8 @3 x8 x4 
!5  L V1 @78 W0,100,50 O2 [ YLR g16 Y.R ( g16 ) YLR g16 g16 g8. Y.R ( g16 ) ]2 YLR g16 Y.R ( g16 ) YLR f+16 Y.R ( f+16 ) YLR f16 Y.R ( f16 ) YLR e16 Y.R ( e16 ) YLR d16 Y.R ( d16 ) r4. @75 O1 [ Y.R ( g8 ) YLR g8 ]4 [ Y.R ( a8 ) YLR a8 ]4 [ Y.R ( g8 ) YLR g8 ]4 [ Y.R ( g8 ) YLR g8 ]4 [ Y.R ( g8 ) YLR g8 ]4 [ Y.R ( a8 ) YLR a8 ]4 [ Y.R ( g8 ) YLR g8 ]4 [ Y.R ( g8 ) YLR g8 ]3 YLR g8 Y.R ( g8 ) [ Y.R ( a8 ) YLR a8 ]4 [ Y.R ( g8 ) YLR g8 ]4 [ Y.R ( a8 ) YLR a8 ]2 [ Y.R ( b8 ) YLR b8 ]2 > [ Y.R ( c8 ) YLR c8 ]2 < [ Y.R ( a+8 ) YLR a+8 ]2 [ Y.R ( a8 ) YLR a8 ]4 [ Y.R ( g8 ) YLR g8 ]4 [ Y.R ( a8 ) YLR a8 ]4 [ Y.R ( b8 ) YLR b8 ]4 > [ Y.R ( c8 ) YLR c8 ]2 < [ Y.R ( a8 ) YLR a8 ]2 [ Y.R ( a8 ) YLR a8 ]2 > Y.R ( c8 ) YLR c8 c8 Y.R ( c8 ) < 
!6  L V1 @78 W0,100,50 O2 [ YLR d16 YL. ( d16 ) YLR d16 d16 d8. YL. ( d16 ) ]2 YLR < b16 YL. ( b16 ) YLR a+16 YL. ( a+16 ) YLR a16 YL. ( a16 ) YLR g16 YL. ( g16 ) YLR f16 YL. ( f16 ) r4. @75 O1 [ YL. ( e8 ) YLR e8 ]4 [ YL. ( f8 ) YLR f8 ]4 [ YL. ( d8 ) YLR d8 ]4 [ YL. ( d8 ) YLR d8 ]4 [ YL. ( e8 ) YLR e8 ]4 [ YL. ( f8 ) YLR f8 ]4 [ YL. ( d8 ) YLR d8 ]4 [ YL. ( d8 ) YLR d8 ]2 Y.R ( e8 ) YLR e8 e8 YL. ( e8 ) [ YL. ( f8 ) YLR f8 ]4 [ YL. ( e8 ) YLR e8 ]4 [ YL. ( f8 ) YLR f8 ]2 [ YL. ( g8 ) YLR g8 ]2 [ YL. ( g8 ) YLR g8 ]4 [ YL. ( f8 ) YLR f8 ]2 [ YL. ( f+8 ) YLR f+8 ]2 [ YL. ( e8 ) YLR e8 ]4 [ YL. ( f+8 ) YLR f+8 ]4 [ YL. ( g8 ) YLR g8 ]4 [ YL. ( a8 ) YLR a8 ]2 [ YL. ( f8 ) YLR f8 ]2 [ YL. ( f8 ) YLR f8 ]2 YL. ( g8 ) YLR g8 g8 YL. ( g8 ) 
