;032 0032F8F6
!1  T188 _-1 @@1,2,1 O2 V6 E100,60,60,3,0 YLR P0,12,2 r4 O4 V5 YLR d16 _V-2 YL. d16 _V2 f16 _V-2 Y.R f16 _V2 g16 _V-2 YLR g16 _V2 d16 _V-2 YL. d16 _V2 f16 _V-2 Y.R f16 _V2 g16 _V-2 YLR g16 _V2 d16 _V-2 YL. d16 _V2 f16 _V-2 Y.R f16 _V2 g16 _V-2 YLR g16 _V2 d16 _V-2 YL. d16 _V2 f16 _V-2 Y.R f16 _V2 g16 _V-2 YLR g16 _V2 d16 _V-2 YL. d16 _V2 f16 _V-2 Y.R f16 _V2 g16 _V-2 YLR g16 _V2 d16 _V-2 YL. d16 YLR _V2 f16 _V-2 Y.R f16 _V2 g16 _V-2 YLR g16 _V2 d16 _V-2 YL. d16 _V2 f16 _V-2 Y.R f16 _V2 g16 _V-2 YLR g16 _V2 d16 _V-2 YL. d16 _V2 f16 _V-2 Y.R f16 _V2 g16 _V-2 YLR g16 _V2 d16 _V-2 YL. d16 _V2 f16 _V-2 Y.R f16 _V2 g16 _V-2 YLR g16 _V2 d16 _V-2 YL. d16 _V2 f16 _V-2 Y.R f16 _V2 g16 _V-2 YLR g16 _V2 d16 _V-2 YL. d16 _V2 f16 _V-2 YLR f16 _V2 YLR d16 _V-2 YL. d16 _V2 f16 _V-2 Y.R f16 _V2 g16 _V-2 YLR g16 _V2 d16 _V-2 YL. d16 _V2 f16 _V-2 Y.R f16 _V2 g16 _V-2 YLR g16 _V2 d16 _V-2 YL. d16 _V2 f16 _V-2 Y.R f16 _V2 g16 _V-2 YLR g16 _V2 d16 _V-2 YL. d16 _V2 f16 _V-2 Y.R f16 _V2 g16 _V-2 YLR g16 _V2 d16 _V-2 YL. d16 _V2 f16 _V-2 Y.R f16 _V2 g16 _V-2 YLR g16 _V2 d16 _V-2 YL. d16 YLR _V2 f16 _V-2 Y.R f16 _V2 g16 _V-2 YLR g16 _V2 d16 _V-2 YL. d16 _V2 f16 _V-2 Y.R f16 _V2 g16 _V-2 YLR g16 _V2 d16 _V-2 YL. d16 _V2 f16 _V-2 Y.R f16 _V2 g16 _V-2 YLR g16 _V2 d16 _V-2 YL. d16 _V2 f16 _V-2 Y.R f16 _V2 g16 _V-2 YLR g16 _V2 d16 _V-2 YL. d16 _V2 f16 _V-2 Y.R f16 _V2 g16 _V-2 YLR g16 _V2 d16 _V-2 YL. d16 _V2 f16 _V-2 YLR f16 L O2 V6 E100,60,60,3,0 P14,9,2 r16 r4 r4. a+4 a+8 a4 a+8 a4 f4 d8~ d1~ d4 _V-4 P0,9,2 EX d2. E100,60,60,3,0 P14,9,2 r4 r4. _V4 a+4 a+8 a4 a+8 > c4 f4 d8~ d1~ d4 _V-4 P0,9,2 EX d2. E100,60,60,3,0 P14,9,2 r4 r4. _V4 < a+4 a+8 a4 a+8 a4 f4 d8~ d1~ d4 _V-4 P0,9,2 EX d2. E100,60,60,3,0 P14,9,2 r4 r4. _V4 a+4 a+8 a4 a+8 a4 a+8 > c8 < a2 g8~ g2~ g8 _V-4 P0,9,2 EX g4~ g16 E100,60,60,3,0 P14,9,2 V7 g8 a8 a+8 > c8 c4 _V-4 c8 _V4 < g8 _V-4 g8 _V4 g8 f8 g8 > c4 _V-4 c8 _V4 < g8 _V-4 g8 _V4 g8 f8 g8 a+4 a4 g8 f4 d+4 d+8 d4 c4 < a+4 g+4 _V-4 g+8 _V4 > d+2~ d+8 < a4 _V-4 a8 _V4 > d+2~ d+8 < a4 _V-4 a8 _V4 > d2~ d8 d8 e8 f8 f+8 _V-4 f+8 _V4 d4 a4 a4 g8 a8 g4 > c4 < a+4 a4 a+4. a8 a4 g8 a8 g4 > c4 < a+4 a4 a+8 > c8 d2 a+8 a8 g8 f8 f4 g4 < a+8 _V-4 a+8 _V4 a+8 > c8 d8 d+1 d8 e8 f8 f+8 _V-4 f+8 _V4 < d4 a4 a4 g8 a8 g4 > c4 < a+4 a4 a+4. a8 a4 g8 a8 g4 > c4 < a+4 a4 a+8 > c8 d2 a+8 a8 a+4 > d4 < a+4 g4~ g8 _V-4 g8 _V4 g8 > c8 < g4 d+8~ d+4~ d+8 f8~ f8 ( Y.R f8 YL. f8 ) YLR r8 f8 g8 a8 a+8 O4 V5 YLR d16 _V-2 YL. d16 _V2 f16 _V-2 Y.R f16 _V2 g16 _V-2 YLR g16 _V2 d16 _V-2 YL. d16 _V2 f16 _V-2 Y.R f16 _V2 g16 _V-2 YLR g16 _V2 d16 _V-2 YL. d16 _V2 f16 _V-2 Y.R f16 _V2 g16 _V-2 YLR g16 _V2 d16 _V-2 YL. d16 _V2 f16 _V-2 Y.R f16 _V2 g16 _V-2 YLR g16 _V2 d16 _V-2 YL. d16 _V2 f16 _V-2 Y.R f16 _V2 g16 _V-2 YLR g16 _V2 d16 _V-2 YL. d16 YLR _V2 f16 _V-2 Y.R f16 _V2 g16 _V-2 YLR g16 _V2 d16 _V-2 YL. d16 _V2 f16 _V-2 Y.R f16 _V2 g16 _V-2 YLR g16 _V2 d16 _V-2 YL. d16 _V2 f16 _V-2 Y.R f16 _V2 g16 _V-2 YLR g16 _V2 d16 _V-2 YL. d16 _V2 f16 _V-2 Y.R f16 _V2 g16 _V-2 YLR g16 _V2 d16 _V-2 YL. d16 _V2 f16 _V-2 Y.R f16 _V2 g16 _V-2 YLR g16 _V2 d16 _V-2 YL. d16 _V2 f16 _V-2 YLR f16 _V2 YLR d16 _V-2 YL. d16 _V2 f16 _V-2 Y.R f16 _V2 g16 _V-2 YLR g16 _V2 d16 _V-2 YL. d16 _V2 f16 _V-2 Y.R f16 _V2 g16 _V-2 YLR g16 _V2 d16 _V-2 YL. d16 _V2 f16 _V-2 Y.R f16 _V2 g16 _V-2 YLR g16 _V2 d16 _V-2 YL. d16 _V2 f16 _V-2 Y.R f16 _V2 g16 _V-2 YLR g16 _V2 d16 _V-2 YL. d16 _V2 f16 _V-2 Y.R f16 _V2 g16 _V-2 YLR g16 _V2 d16 _V-2 YL. d16 YLR _V2 f16 _V-2 Y.R f16 _V2 g16 _V-2 YLR g16 _V2 d16 _V-2 YL. d16 _V2 f16 _V-2 Y.R f16 _V2 g16 _V-2 YLR g16 _V2 d16 _V-2 YL. d16 _V2 f16 _V-2 Y.R f16 _V2 g16 _V-2 YLR g16 _V2 d16 _V-2 YL. d16 _V2 f16 _V-2 Y.R f16 _V2 g16 _V-2 YLR g16 _V2 d16 _V-2 YL. d16 _V2 f16 _V-2 Y.R f16 _V2 g16 _V-2 YLR g16 _V2 d16 _V-2 YL. d16 _V2 f16 _V-2 YLR f16 _V2 E100,60,60,3,0 YLR d16 _V-2 YL. d16 _V2 f16 _V-2 Y.R f16 _V2 g16 _V-2 YLR g16 _V2 d16 _V-2 YL. d16 _V2 f16 _V-2 Y.R f16 _V2 g16 _V-2 YLR g16 _V2 d16 _V-2 YL. d16 _V2 f16 _V-2 Y.R f16 _V2 g16 _V-2 YLR g16 _V2 d16 _V-2 YL. d16 _V2 f16 _V-2 Y.R f16 _V2 g16 _V-2 YLR g16 _V2 d16 _V-2 YL. d16 _V2 f16 _V-2 Y.R f16 _V2 g16 _V-2 YLR g16 _V2 d16 _V-2 YL. d16 YLR _V2 f16 _V-2 Y.R f16 _V2 g16 _V-2 YLR g16 _V2 d16 _V-2 YL. d16 _V2 f16 _V-2 Y.R f16 _V2 g16 _V-2 YLR g16 _V2 d16 _V-2 YL. d16 _V2 f16 _V-2 Y.R f16 _V2 g16 _V-2 YLR g16 _V2 d16 _V-2 YL. d16 _V2 f16 _V-2 Y.R f16 _V2 g16 _V-2 YLR g16 _V2 d16 _V-2 YL. d16 _V2 f16 _V-2 Y.R f16 _V2 g16 _V-2 YLR g16 _V2 d16 _V-2 YL. d16 _V2 f16 _V-2 YLR f16 _V2 YLR d16 _V-2 YL. d16 _V2 f16 _V-2 Y.R f16 _V2 g16 _V-2 YLR g16 _V2 d16 _V-2 YL. d16 _V2 f16 _V-2 Y.R f16 _V2 g16 _V-2 YLR g16 _V2 d16 _V-2 YL. d16 _V2 f16 _V-2 Y.R f16 _V2 g16 _V-2 YLR g16 _V2 d16 _V-2 YL. d16 _V2 f16 _V-2 Y.R f16 _V2 g16 _V-2 YLR g16 _V2 d16 _V-2 YL. d16 _V2 f16 _V-2 Y.R f16 _V2 g16 _V-2 YLR g16 _V2 d16 _V-2 YL. d16 YLR _V2 f16 _V-2 Y.R f16 _V2 g16 _V-2 YLR g16 _V2 d16 _V-2 YL. d16 _V2 f16 _V-2 Y.R f16 _V2 g16 _V-2 YLR g16 _V2 d16 _V-2 YL. d16 _V2 f16 _V-2 Y.R f16 _V2 g16 _V-2 YLR g16 _V2 d16 _V-2 YL. d16 _V2 f16 _V-2 Y.R f16 _V2 g16 _V-2 YLR g16 _V2 d16 _V-2 YL. d16 _V2 f16 _V-2 Y.R f16 _V2 g16 _V-2 YLR g16 _V2 d16 _V-2 YL. d16 _V2 f16 _V-2 YLR f16 
!2  _-1 @@1,2,1 O2 V10 E100,60,60,3,0 YLR P0,12,2 V6 a16 a+16 > c16 d16 d+1 g4. f4. d4 < a+1~ a+1 > d+1 g4. f4. d4 a+1 YLR a+8 YL. a+8 Y.R a+8 YLR a+8 YL. a+8 Y.R a+8 YLR a+8 YL. a+8 L YLR O2 V9 E100,60,60,3,0 P14,9,2 r4 r4. a+4 a+8 a4 a+8 a4 f4 d8~ d1~ d4 _V-7 P0,9,2 EX d2. E100,60,60,3,0 P14,9,2 r4 r4. _V7 a+4 a+8 a4 a+8 > c4 f4 d8~ d1~ d4 _V-7 P0,9,2 EX d2. E100,60,60,3,0 P14,9,2 r4 r4. _V7 < a+4 a+8 a4 a+8 a4 f4 d8~ d1~ d4 _V-7 P0,9,2 EX d2. E100,60,60,3,0 P14,9,2 r4 r4. _V7 a+4 a+8 a4 a+8 a4 a+8 > c8 < a2 g8~ g2~ g8 _V-7 P0,9,2 EX g4. E100,60,60,3,0 P14,9,2 V10 a+8 > c8 d8 d+8 f4 _V-4 f8 _V4 < a+8 _V-4 a+8 _V4 a+8 a8 a+8 > f4 _V-4 f8 _V4 < a+8 _V-4 a+8 _V4 a+8 a8 a+8 > d4 c4 < a+8 a4 g4 g8 f4 d+4 d4 c4 _V-4 c8 _V4 g2~ g8 c4 _V-4 c8 _V4 g2~ g8 d4 _V-4 d8 _V4 g2~ g8 f+8 g8 g+8 a8 _V-4 a8 _V4 V9 > d4 a4 a4 g8 a8 g4 > c4 < a+4 a4 a+4. a8 a4 g8 a8 g4 > c4 < a+4 a4 a+8 > c8 d2 V10 d8 c8 < a+8 a8 a4 a+4 d8 _V-4 d8 _V4 d8 d+8 f8 g1 f+8 g8 g+8 a8 _V-4 a8 _V4 V9 d4 a4 a4 g8 a8 g4 > c4 < a+4 a4 a+4. a8 a4 g8 a8 g4 > c4 < a+4 a4 a+8 > c8 d2 V10 d8 c8 d4 a4 g4 d4~ d8 _V-4 d8 _V4 d8 d+8 d4 < a8~ a2~ a8 ( Y.R a8 YL. a8 ) YLR r8 a8 a+8 > c8 d8~ d1~ d1~ d1~ d2~ _V-2 d4~ _V-2 d4 r1 r1 r1 r1 @@1,2,1 O3 V10 E100,60,60,3,0 YLR P0,12,2 V6 d+1 g4. f4. d4 < a+1~ a+1 > d+1 g4. f4. d4 a+1 YLR a+8 YL. a+8 Y.R a+8 YLR a+8 YL. a+8 Y.R a+8 YLR a+8 YL. a+8 
!3  _-1 `9F00 `AE01 V3 YLR @A7 @B3 @~2 E70,70,70,0,0 B1 V3 O1 r4 d+8 d+8 d+8 d+8 d+8 d+8 d+8 d+8 f8 f8 f8 f8 f8 f8 f8 f8 g8 g8 g8 g8 g8 g8 g8 g8 g8 g8 g8 g8 g8 g8 f8 f8 d+8 d+4 d+4 < a+4 > d+8 f8 f4 f4 c4 f8 g8 g4 g4 d4 g8 g4 r8 g4 r8 g4 L d+8 d+4 d+4 < a+4 > d+8 f8 f4 f4 c4 f8 g8 g4 g4 d4 g8 g8 g4 g4 d8 g8 d8 d+8 d+4 d+4 < a+4 > d+8 f8 f4 f4 c4 f8 g8 g4 g4 d4 g8 g8 g4 g4 d8 g8 d8 d+8 d+4 d+4 < a+4 > d+8 f8 f4 f4 c4 f8 g8 g4 g4 d4 g8 g8 g4 g4 d8 g8 d8 d+8 d+4 d+4 < a+4 > d+8 f8 f4 f4 c4 f8 g8 g4 g4 d4 g8 g8 g4 g4 d4 c+8 c8 c4 c4 g4 > c8 < f8 f4 f4 a4 > c8 < g2 f4. d+4. d+4 d4 d4 < g+8 g+4 > d+4 g+4 d+8 < a8 a4 > d+4 g+4 d+8 d8 d4 a4 > d4 < a8 d8 d8 d8 d4 a8 a8 g+8 g8 g4 g4 d4 c+8 c8 c4 c4 < a+4 a+8 a8 a4 a4 > c+4 c+8 d8 d4 d4 f+4 f+8 g4. g8 f4. f8 d+4. d+8 d4. d8 c8 c4 d+4 g4 d+8 d8 d8 d8 > d4 < a4 g+8 g8 g4 g4 d4 c+8 c8 c4 c4 e4 e8 f8 f4 f4 d+4 d+8 d8 d4 d4 a4 a8 g4. g8 f4 f8 d+4 d+4 d4 d4 d8 c8 c4 c4 g8 > c8 < d4 d8 d4 r2 d+8 d+4 d+4 < a+4 > d+8 f8 f4 f4 c4 f8 g8 g4 g4 d4 g8 g8 g4 g4 d8 g8 d8 d+8 d+4 d+4 < a+4 > d+8 f8 f4 f4 c4 f8 g8 g4 g4 d4 g8 g4 r8 g4 r8 g4 d+8 d+4 d+4 < a+4 > d+8 f8 f4 f4 c4 f8 g8 g4 g4 d4 g8 g8 g4 g4 d8 g8 d8 d+8 d+4 d+4 < a+4 > d+8 f8 f4 f4 c4 f8 g8 g4 g4 d4 g8 g4 r8 g4 r8 g4 
!4  V2 YLR r4 [ @7 x4 @7 x4 @7 x4 @7 x4 ]3 @7 x4 @7 x4 @7 x4 @8 x4 V4 YLR @8 x4 [ @5 x8 @6 x8 ]11 @8 x4 r4 r2 L @8 x4 [ @5 x8 @6 x8 ]15 [ @5 x8 @6 x8 ]14 @5 x8 @7 x8 @5 x8 @6 x8 @8 x4 [ @5 x8 @6 x8 ]15 [ @5 x8 @6 x8 ]14 @5 x8 @7 x8 @6 x8 @7 x8 @8 x4 @5 x8 @6 x8 @5 x8 @6 x8 @5 x8 @6 x8 [ @5 x8 @6 x8 ]4 @5 x8 @6 x8 @7 x8 @6 x8 @7 x4 @5 x8 @6 x8 @5 x8 @6 x8 @7 x8 @5 x8 @7 x8 @5 x8 @7 x4 @8 x4 [ @6 x8 @5 x8 ]3 @7 x4 [ @5 x8 @6 x8 ]3 @7 x4 [ @6 x8 @5 x8 ]3 @8 x4 r8 @19 x2 r8 @8 x4 [ @5 x8 @6 x8 ]15 @8 x4 [ @5 x8 @6 x8 ]11 @8 x4 r8 @8 x4 @5 x8 @6 x8 @5 x8 @8 x4 [ @5 x8 @6 x8 ]15 @5 x8 @6 x8 @7 x8 @6 x8 @7 x8 @5 x8 @6 x8 @8 x8 @6 x8 @7 x8 @5 x8 @7 x8 @5 x8 YL. @15 x8 Y.R @15 x8 YLR @15 x8 @8 x4 [ @5 x8 @6 x8 ]2 @5 x8 @8 x8 r8 @8 x8 @8 x8 r8 r2 @8 x4 [ @5 x8 @6 x8 ]15 [ @5 x8 @6 x8 ]14 @5 x8 @7 x8 @5 x8 @6 x8 @8 x4 [ @5 x8 @6 x8 ]15 V4 YLR @8 x4 [ @5 x8 @6 x8 ]11 @8 x4 r4 r2 
!5  r4 V1 [ @0 c4 @0 c4 @0 c4 @0 c4 ]3 @0 c4 @0 c4 @0 c8 @1 c8 @1 c8 @1 c8 @0 c8 r8 @1 c8 r4 @0 c8 @1 c8 r8 @0 c8 r8 @1 c8 @0 c8 r8 @0 c8 @1 c8 r8 @0 c8 r8 @1 c8 r4 @0 c8 @1 c8 r8 [ @1 c16 @1 c16 @2 c16 @2 c16 @2 < a16 @2 a16 > ]2 @1 c16 @1 c16 @0 c16 @0 c16 L V1 [ @0 c8 r8 @1 c8 r4 @0 c8 @1 c8 r8 @0 c8 r8 @1 c8 @0 c8 r8 @0 c8 @1 c8 r8 ]2 @0 c8 r8 @1 c8 r4 @0 c8 @1 c8 r8 @0 c8 r8 @1 c8 @0 c8 r8 @0 c8 @1 c8 r8 @0 c8 r8 @1 c8 r4 @0 c8 @1 c8 r8 @0 c8 r8 @1 c8 @0 c8 r8 @0 c8 @1 c8 c8 [ @0 c8 r8 @1 c8 r4 @0 c8 @1 c8 r8 @0 c8 r8 @1 c8 @0 c8 r8 @0 c8 @1 c8 r8 ]2 @0 c8 r8 @1 c8 r4 @0 c8 @1 c8 r8 @0 c8 r8 @1 c8 @0 c8 r8 @0 c8 @1 c8 r8 @0 c8 r8 @1 c8 r4 @0 c8 @1 c8 r8 @0 c8 r8 @1 c8 @0 c8 r8 @1 c8 c16 c16 c16 c16 @0 c8 r8 @1 c8 r4 @0 c8 @1 c8 r8 @0 c8 r8 @1 c8 @0 c8 r8 @0 c8 @1 c8 c8 @1 c8 @0 c8 @1 c8 @0 c8 @1 c8 @0 c8 c8 @1 c8 r8 @1 c8 c8 @0 c8 @1 c8 @0 c8 @1 c8 c8 @0 c8 r8 @1 c8 r4 @0 c8 @1 c8 r8 @0 c8 r8 @1 c8 @0 c8 r8 @0 c8 @1 c8 r8 @0 c8 r8 @1 c8 r4 @0 c8 @1 c8 r8 @1 c8 c8 @0 c8 @1 c8 r8 @1 c8 c8 @0 c8 @0 c8 r8 @1 c8 r4 @0 c8 @1 c8 r8 @0 c8 r8 @1 c8 @0 c8 r8 @0 c8 @1 c8 r8 @0 c8 r8 @1 c8 r4 @0 c8 @1 c8 r8 @0 c8 r8 @1 c8 @0 c8 r8 @0 c8 @1 c8 c8 @0 c8 r8 @1 c8 r8 @0 c8 c8 @1 c8 @0 c8 r8 @0 c8 @1 c8 @0 c8 r8 @0 c8 @1 c8 r8 @0 c8 c8 @1 c8 r8 r8 @0 c8 @1 c8 @0 c8 @1 c8 c8 c8 c8 r8 c8 c8 @0 c8 @0 c8 r8 @1 c8 r4 @0 c8 @1 c8 r8 @0 c8 r8 @1 c8 @0 c8 r8 @0 c8 @1 c8 r8 @0 c8 r8 @1 c8 r4 @0 c8 @1 c8 r8 @0 c8 r8 @1 c8 @0 c8 r8 @0 c8 @1 c8 c8 @1 c8 @0 c8 @1 c8 @0 c8 @1 c8 @0 c8 c8 @1 c8 @0 c8 @1 c8 @0 c8 @1 c8 r8 c8 c8 @0 c8 @0 c8 r8 @1 c8 @0 c8 @0 c8 r8 @1 c8 @1 c8 r8 c8 c8 r8 r2 [ @0 c8 r8 @1 c8 r4 @0 c8 @1 c8 r8 @0 c8 r8 @1 c8 @0 c8 r8 @0 c8 @1 c8 r8 ]2 @0 c8 r8 @1 c8 r4 @0 c8 @1 c8 r8 @0 c8 r8 @1 c8 @0 c8 r8 @0 c8 @1 c8 r8 @0 c8 r8 @1 c8 r4 @0 c8 @1 c8 r8 @0 c8 r8 @1 c8 @0 c8 r8 @1 c8 c8 @0 c8 [ @0 c8 r8 @1 c8 r4 @0 c8 @1 c8 r8 @0 c8 r8 @1 c8 @0 c8 r8 @0 c8 @1 c8 r8 ]2 @0 c8 r8 @1 c8 r4 @0 c8 @1 c8 r8 @0 c8 r8 @1 c8 @0 c8 r8 @0 c8 @1 c8 r8 @0 c8 r8 @1 c8 r4 @0 c8 @1 c8 r8 [ @1 c16 @1 c16 @2 c16 @2 c16 @2 < a16 @2 a16 > ]2 @1 c16 @1 c16 @0 c16 @0 c16 
!6  _-1 V1 @40 W0,99,0 O2 c16 d16 d+16 f16 g1 a+4. a4. f4 d1~ d1 g1 a+4. a4. f4 > d1 @8 O1 YLR V1 g8 V0 YL. g8 Y.R g8 YLR V1 g8 V0 YL. g8 Y.R g8 YLR V1 g8 V0 YL. g8 L V1 O1 YLR @5 W0,100,20 d+8 g8 a+8 > d+8 ( YL. d+8 ) < YLR a+8 g8 a+8 f8 a8 > c8 f8 ( YL. f8 YLR ) c8 < a8 > c8 < g8 a+8 > d8 g8 ( YL. g8 YLR ) d8 < a+8 > d8 < g8 a+8 > d8 g8 ( YL. g8 YLR ) d8 < a+8 > d8 < d+8 g8 a+8 > d+8 ( YL. d+8 ) < YLR a+8 g8 a+8 f8 a8 > c8 f8 ( YL. f8 YLR ) c8 < a8 > c8 < g8 a+8 > d8 g8 ( YL. g8 YLR ) d8 < a+8 > d8 @46 O0 Y.R g16 a+16 > d16 g16 a+16 > d16 g16 a+16 YL. g16 a+16 > d16 g16 a+16 > d16 g16 a+16 V1 O1 YLR @5 W0,100,20 d+8 g8 a+8 > d+8 ( YL. d+8 ) < YLR a+8 g8 a+8 f8 a8 > c8 f8 ( YL. f8 YLR ) c8 < a8 > c8 < g8 a+8 > d8 g8 ( YL. g8 YLR ) d8 < a+8 > d8 < g8 a+8 > d8 g8 ( YL. g8 YLR ) d8 < a+8 > d8 < d+8 g8 a+8 > d+8 ( YL. d+8 ) YLR < a+8 g8 a+8 f8 a8 > c8 f8 ( YL. f8 ) YLR c8 < a8 > c8 < g8 a+8 > d8 g8 ( YL. g8 ) YLR d8 < a+8 > d8 @46 O0 YL. g16 a+16 > d16 g16 a+16 > d16 g16 a+16 Y.R g16 a+16 > d16 g16 a+16 > d16 g16 a+16 YLR O1 @40 W0,100,40 g1 a1 a+2 > c4. d8~ d1 V1 @44 W0,100,20 O1 g+16 > c16 d+16 g16 g+16 > c16 d+16 g16 g+16 > c16 @13 W0,100,40 O2 g8 ( YL. g8 Y.R g8 V1 YLR @44 W0,100,20 O1 a16 > c16 d+16 g16 a16 > c16 d+16 g16 a16 > c16 @13 W0,100,40 O2 g8 ( YL. g8 Y.R g8 V1 YLR @44 W0,100,20 O1 d16 f+16 a16 > c16 d16 f+16 a16 > c16 d16 f+16 @13 W0,100,40 O2 g8 ( YL. g8 Y.R g8 @35 O2 YLR V1 f+8 g8 g+8 a8 ( Y.R a8 YL. a8 Y.R a8 r8 @34 W0,100,40 YLR V1 O2 < g8 ( g8 g8 ) g8 ( g8 g8 ) g8 ( g8 > ) c8 ( c8 c8 ) c8 ( c8 c8 ) c8 ( c8 < ) a8 ( a8 a8 ) a8 ( a8 a8 ) a8 ( a8 > ) d8 ( d8 d8 ) d8 ( d8 d8 ) d8 ( d8 @40 W0,100,40 YLR O2 V1 g2 f2 d+2 d2 @44 W0,100,40 YLR O1 V1 c16 g16 > c16 d+16 g16 > c16 d+16 g16 > c16 < g16 d+16 c16 < g16 d+16 c16 < g16 @35 O2 YLR V1 f+8 g8 g+8 a8 ( Y.R a8 YL. a8 Y.R a8 r8 @34 W0,100,40 YLR V1 O2 < g8 ( g8 g8 ) g8 ( g8 g8 ) g8 ( g8 > ) c8 ( c8 c8 ) c8 ( c8 c8 ) c8 ( c8 ) f8 ( f8 f8 ) f8 ( f8 f8 ) d+8 ( d+8 ) d8 ( d8 d8 ) d8 ( d8 d8 ) d8 ( d8 ) g4 ( g8 ) g8 f8 ( f8 f8 ) d+8 ( d+8 ) d+8 ( d+8 ) d8 ( d8 ) d8 d4 @44 W0,100,40 YLR O1 V1 c16 g16 > c16 d+16 g16 > c16 d+16 g16 > c16 < g16 d+16 c16 < g16 d+16 @8 O2 YLR V1 YLR d8 ( YL. d8 ) YLR d8 d4 r2 @40 W0,99,52 V1 YLR O2 g1 a+4. a4. f4 d1~ d1 g1 a+4. a4. f4 > d1 @8 O1 YLR V1 g8 V0 YL. g8 Y.R g8 YLR V1 g8 V0 YL. g8 Y.R g8 YLR V1 g8 V0 YL. g8 @40 W0,99,52 V1 YLR O2 g1 a+4. a4. f4 d1~ d1 g1 a+4. a4. f4 > d1 @8 O1 YLR V1 g8 V0 YL. g8 Y.R g8 YLR V1 g8 V0 YL. g8 Y.R g8 YLR V1 g8 V0 YL. g8 
