;029 001EDD50
!1  T140 V3 O3 B12 D2 @2 E90,100,80,12,20 r8 a2~ b4~ a4~ g+4. e16 f+16 g+4~ a4~ f+2~ g+4~ d+8~ T195 d+8~ e2. ( e8 ) D0 V7 O1 @2 E100,0,0,11,0 Y.R a16 > c+16 e16 a16 c+16 e16 a16 > c+16 < e16 a16 > c+16 e16 < a16 > c+16 e16 a16 L O2 V10 @@0,2,0 E100,0,0,23,23 PX Y.R [ e16 g+16 > c+16 < g+16 ]4 YL. [ d+16 g+16 > c16 < g+16 ]4 Y.R [ d+16 g+16 b16 g+16 ]4 YL. [ c+16 f+16 a+16 f+16 ]4 Y.R [ e16 a16 > c+16 < a16 ]4 YL. [ e16 g+16 b16 g+16 ]4 Y.R [ d+16 f+16 a16 f+16 ]4 YL. [ d+16 f+16 > c16 < f+16 ]4 O1 V7 @2 E100,0,0,11,11 PX Y.R a32 YL. _V-2 a32 _V2 > Y.R c+32 YL. _V-2 c+32 _V2 Y.R e32 YL. _V-2 e32 _V2 Y.R a32 YL. _V-2 a32 _V2 > Y.R c+32 YL. _V-2 c+32 _V2 Y.R e32 YL. _V-2 e32 _V2 Y.R a32 YL. _V-2 a32 _V2 > Y.R c+32 YL. _V-2 c+32 _V2 Y.R e32 YL. _V-2 e32 _V2 Y.R c+32 YL. _V-2 c+32 _V2 < Y.R a32 YL. _V-2 a32 _V2 Y.R e32 YL. _V-2 e32 _V2 Y.R c+32 YL. _V-2 c+32 _V2 < Y.R a32 YL. _V-2 a32 _V2 Y.R e32 YL. _V-2 e32 _V2 Y.R c+32 YL. _V-2 c+32 _V2 < Y.R b32 YL. _V-2 b32 _V2 > Y.R d+32 YL. _V-2 d+32 _V2 Y.R f+32 YL. _V-2 f+32 _V2 Y.R b32 YL. _V-2 b32 _V2 > Y.R d+32 YL. _V-2 d+32 _V2 Y.R f+32 YL. _V-2 f+32 _V2 Y.R b32 YL. _V-2 b32 _V2 > Y.R d+32 YL. _V-2 d+32 _V2 Y.R f+32 YL. _V-2 f+32 _V2 Y.R d+32 YL. _V-2 d+32 _V2 < Y.R b32 YL. _V-2 b32 _V2 Y.R f+32 YL. _V-2 f+32 _V2 Y.R d+32 YL. _V-2 d+32 _V2 < Y.R b32 YL. _V-2 b32 _V2 Y.R f+32 YL. _V-2 f+32 _V2 Y.R d+32 YL. _V-2 d+32 _V2 < Y.R g+32 YL. _V-2 g+32 _V2 Y.R b32 YL. _V-2 b32 _V2 > Y.R e32 YL. _V-2 e32 _V2 Y.R g+32 YL. _V-2 g+32 _V2 Y.R b32 YL. _V-2 b32 _V2 > Y.R e32 YL. _V-2 e32 _V2 Y.R g+32 YL. _V-2 g+32 _V2 Y.R b32 YL. _V-2 b32 _V2 > Y.R f+32 YL. _V-2 f+32 _V2 Y.R d+32 YL. _V-2 d+32 _V2 < Y.R b32 YL. _V-2 b32 _V2 Y.R f+32 YL. _V-2 f+32 _V2 Y.R d+32 YL. _V-2 d+32 _V2 < Y.R b32 YL. _V-2 b32 _V2 Y.R f+32 YL. _V-2 f+32 _V2 Y.R d+32 YL. _V-2 d+32 _V2 Y.R c+32 YL. _V-2 c+32 _V2 Y.R e32 YL. _V-2 e32 _V2 Y.R g+32 YL. _V-2 g+32 _V2 > Y.R c+32 YL. _V-2 c+32 _V2 Y.R e32 YL. _V-2 e32 _V2 Y.R g+32 YL. _V-2 g+32 _V2 > Y.R c+32 YL. _V-2 c+32 _V2 Y.R e32 YL. _V-2 e32 _V2 Y.R d+32 YL. _V-2 d+32 _V2 < Y.R b32 YL. _V-2 b32 _V2 Y.R f+32 YL. _V-2 f+32 _V2 Y.R d+32 YL. _V-2 d+32 _V2 < Y.R b32 YL. _V-2 b32 _V2 Y.R f+32 YL. _V-2 f+32 _V2 Y.R d+32 YL. _V-2 d+32 _V2 < Y.R b32 YL. _V-2 b32 _V2 Y.R a32 YL. _V-2 a32 _V2 > Y.R c+32 YL. _V-2 c+32 _V2 Y.R e32 YL. _V-2 e32 _V2 Y.R a32 YL. _V-2 a32 _V2 > Y.R c+32 YL. _V-2 c+32 _V2 Y.R e32 YL. _V-2 e32 _V2 Y.R a32 YL. _V-2 a32 _V2 > Y.R c+32 YL. _V-2 c+32 _V2 Y.R e32 YL. _V-2 e32 _V2 Y.R c+32 YL. _V-2 c+32 _V2 < Y.R a32 YL. _V-2 a32 _V2 Y.R e32 YL. _V-2 e32 _V2 Y.R c+32 YL. _V-2 c+32 _V2 < Y.R a32 YL. _V-2 a32 _V2 Y.R e32 YL. _V-2 e32 _V2 Y.R c+32 YL. _V-2 c+32 _V2 < Y.R b32 YL. _V-2 b32 _V2 > Y.R d+32 YL. _V-2 d+32 _V2 Y.R f+32 YL. _V-2 f+32 _V2 Y.R b32 YL. _V-2 b32 _V2 > Y.R d+32 YL. _V-2 d+32 _V2 Y.R f+32 YL. _V-2 f+32 _V2 Y.R b32 YL. _V-2 b32 _V2 > Y.R d+32 YL. _V-2 d+32 _V2 Y.R f+32 YL. _V-2 f+32 _V2 Y.R d+32 YL. _V-2 d+32 _V2 < Y.R b32 YL. _V-2 b32 _V2 Y.R f+32 YL. _V-2 f+32 _V2 Y.R d+32 YL. _V-2 d+32 _V2 < Y.R b32 YL. _V-2 b32 _V2 Y.R f+32 YL. _V-2 f+32 _V2 Y.R d+32 YL. _V-2 d+32 _V2 < Y.R g+32 YL. _V-2 g+32 _V2 > Y.R c+32 YL. _V-2 c+32 _V2 Y.R d+32 YL. _V-2 d+32 _V2 Y.R g+32 YL. _V-2 g+32 _V2 Y.R d+32 YL. _V-2 d+32 _V2 Y.R g+32 YL. _V-2 g+32 _V2 > Y.R c+32 YL. _V-2 c+32 _V2 > Y.R d+32 YL. _V-2 d+32 _V2 Y.R c+32 YL. _V-2 c+32 _V2 Y.R d+32 YL. _V-2 d+32 _V2 Y.R g+32 YL. _V-2 g+32 _V2 > Y.R c+32 YL. _V-2 c+32 _V2 < Y.R g+32 YL. _V-2 g+32 _V2 > Y.R c+32 YL. _V-2 c+32 _V2 Y.R d+32 YL. _V-2 d+32 _V2 Y.R g+32 YL. _V-2 g+32 _V2 > Y.R c32 YL. _V-2 c32 _V2 < Y.R g+32 YL. _V-2 g+32 _V2 Y.R d+32 YL. _V-2 d+32 _V2 Y.R c32 YL. _V-2 c32 _V2 Y.R d+32 YL. _V-2 d+32 _V2 Y.R c32 YL. _V-2 c32 _V2 < Y.R g+32 YL. _V-2 g+32 _V2 Y.R d+32 YL. _V-2 d+32 _V2 Y.R g+32 YL. _V-2 g+32 _V2 Y.R d+32 YL. _V-2 d+32 _V2 Y.R c32 YL. _V-2 c32 _V2 < Y.R g+32 YL. _V-2 g+32 _V2 Y.R c32 YL. _V-2 c32 _V2 < Y.R g+32 YL. _V-2 g+32 _V2 Y.R d+32 YL. _V-2 d+32 _V2 Y.R c32 YL. _V-2 c32 _V2 O2 V10 @@0,2,0 E100,0,0,23,23 PX Y.R [ e16 g+16 > c+16 < g+16 ]4 YL. [ d+16 g+16 > c16 < g+16 ]4 Y.R [ d+16 g+16 b16 g+16 ]4 YL. [ c+16 f+16 a+16 f+16 ]4 Y.R [ e16 a16 > c+16 < a16 ]4 YL. [ e16 g+16 b16 g+16 ]4 Y.R [ d+16 f+16 a16 f+16 ]4 YL. [ d+16 f+16 > c16 < f+16 ]4 O1 V7 @2 E100,0,0,11,11 PX Y.R a32 YL. _V-2 a32 _V2 > Y.R c+32 YL. _V-2 c+32 _V2 Y.R e32 YL. _V-2 e32 _V2 Y.R a32 YL. _V-2 a32 _V2 > Y.R c+32 YL. _V-2 c+32 _V2 Y.R e32 YL. _V-2 e32 _V2 Y.R a32 YL. _V-2 a32 _V2 > Y.R c+32 YL. _V-2 c+32 _V2 Y.R e32 YL. _V-2 e32 _V2 Y.R c+32 YL. _V-2 c+32 _V2 < Y.R a32 YL. _V-2 a32 _V2 Y.R e32 YL. _V-2 e32 _V2 Y.R c+32 YL. _V-2 c+32 _V2 < Y.R a32 YL. _V-2 a32 _V2 Y.R e32 YL. _V-2 e32 _V2 Y.R c+32 YL. _V-2 c+32 _V2 < Y.R b32 YL. _V-2 b32 _V2 > Y.R d+32 YL. _V-2 d+32 _V2 Y.R f+32 YL. _V-2 f+32 _V2 Y.R b32 YL. _V-2 b32 _V2 > Y.R d+32 YL. _V-2 d+32 _V2 Y.R f+32 YL. _V-2 f+32 _V2 Y.R b32 YL. _V-2 b32 _V2 > Y.R d+32 YL. _V-2 d+32 _V2 Y.R f+32 YL. _V-2 f+32 _V2 Y.R d+32 YL. _V-2 d+32 _V2 < Y.R b32 YL. _V-2 b32 _V2 Y.R f+32 YL. _V-2 f+32 _V2 Y.R d+32 YL. _V-2 d+32 _V2 < Y.R b32 YL. _V-2 b32 _V2 Y.R f+32 YL. _V-2 f+32 _V2 Y.R d+32 YL. _V-2 d+32 _V2 < Y.R g+32 YL. _V-2 g+32 _V2 Y.R b32 YL. _V-2 b32 _V2 > Y.R e32 YL. _V-2 e32 _V2 Y.R g+32 YL. _V-2 g+32 _V2 Y.R b32 YL. _V-2 b32 _V2 > Y.R e32 YL. _V-2 e32 _V2 Y.R g+32 YL. _V-2 g+32 _V2 Y.R b32 YL. _V-2 b32 _V2 > Y.R f+32 YL. _V-2 f+32 _V2 Y.R d+32 YL. _V-2 d+32 _V2 < Y.R b32 YL. _V-2 b32 _V2 Y.R f+32 YL. _V-2 f+32 _V2 Y.R d+32 YL. _V-2 d+32 _V2 < Y.R b32 YL. _V-2 b32 _V2 Y.R f+32 YL. _V-2 f+32 _V2 Y.R d+32 YL. _V-2 d+32 _V2 Y.R c+32 YL. _V-2 c+32 _V2 Y.R e32 YL. _V-2 e32 _V2 Y.R g+32 YL. _V-2 g+32 _V2 > Y.R c+32 YL. _V-2 c+32 _V2 Y.R e32 YL. _V-2 e32 _V2 Y.R g+32 YL. _V-2 g+32 _V2 > Y.R c+32 YL. _V-2 c+32 _V2 Y.R e32 YL. _V-2 e32 _V2 Y.R d+32 YL. _V-2 d+32 _V2 < Y.R b32 YL. _V-2 b32 _V2 Y.R f+32 YL. _V-2 f+32 _V2 Y.R d+32 YL. _V-2 d+32 _V2 < Y.R b32 YL. _V-2 b32 _V2 Y.R f+32 YL. _V-2 f+32 _V2 Y.R d+32 YL. _V-2 d+32 _V2 < Y.R b32 YL. _V-2 b32 _V2 Y.R a32 YL. _V-2 a32 _V2 > Y.R c+32 YL. _V-2 c+32 _V2 Y.R e32 YL. _V-2 e32 _V2 Y.R a32 YL. _V-2 a32 _V2 > Y.R c+32 YL. _V-2 c+32 _V2 Y.R e32 YL. _V-2 e32 _V2 Y.R a32 YL. _V-2 a32 _V2 > Y.R c+32 YL. _V-2 c+32 _V2 Y.R e32 YL. _V-2 e32 _V2 Y.R c+32 YL. _V-2 c+32 _V2 < Y.R a32 YL. _V-2 a32 _V2 Y.R e32 YL. _V-2 e32 _V2 Y.R c+32 YL. _V-2 c+32 _V2 < Y.R a32 YL. _V-2 a32 _V2 Y.R e32 YL. _V-2 e32 _V2 Y.R c+32 YL. _V-2 c+32 _V2 < Y.R b32 YL. _V-2 b32 _V2 > Y.R d+32 YL. _V-2 d+32 _V2 Y.R f+32 YL. _V-2 f+32 _V2 Y.R b32 YL. _V-2 b32 _V2 > Y.R d+32 YL. _V-2 d+32 _V2 Y.R f+32 YL. _V-2 f+32 _V2 Y.R b32 YL. _V-2 b32 _V2 > Y.R d+32 YL. _V-2 d+32 _V2 Y.R f+32 YL. _V-2 f+32 _V2 Y.R d+32 YL. _V-2 d+32 _V2 < Y.R b32 YL. _V-2 b32 _V2 Y.R f+32 YL. _V-2 f+32 _V2 Y.R d+32 YL. _V-2 d+32 _V2 < Y.R b32 YL. _V-2 b32 _V2 Y.R f+32 YL. _V-2 f+32 _V2 Y.R d+32 YL. _V-2 d+32 _V2 < Y.R g+32 YL. _V-2 g+32 _V2 > Y.R c+32 YL. _V-2 c+32 _V2 Y.R d+32 YL. _V-2 d+32 _V2 Y.R g+32 YL. _V-2 g+32 _V2 Y.R d+32 YL. _V-2 d+32 _V2 Y.R g+32 YL. _V-2 g+32 _V2 > Y.R c+32 YL. _V-2 c+32 _V2 > Y.R d+32 YL. _V-2 d+32 _V2 Y.R c+32 YL. _V-2 c+32 _V2 Y.R d+32 YL. _V-2 d+32 _V2 Y.R g+32 YL. _V-2 g+32 _V2 > Y.R c+32 YL. _V-2 c+32 _V2 < Y.R g+32 YL. _V-2 g+32 _V2 > Y.R c+32 YL. _V-2 c+32 _V2 Y.R d+32 YL. _V-2 d+32 _V2 Y.R g+32 YL. _V-2 g+32 _V2 > Y.R c32 YL. _V-2 c32 _V2 < Y.R g+32 YL. _V-2 g+32 _V2 Y.R d+32 YL. _V-2 d+32 _V2 Y.R c32 YL. _V-2 c32 _V2 Y.R d+32 YL. _V-2 d+32 _V2 Y.R c32 YL. _V-2 c32 _V2 < Y.R g+32 YL. _V-2 g+32 _V2 Y.R d+32 YL. _V-2 d+32 _V2 Y.R g+32 YL. _V-2 g+32 _V2 Y.R d+32 YL. _V-2 d+32 _V2 Y.R c32 YL. _V-2 c32 _V2 < Y.R g+32 YL. _V-2 g+32 _V2 Y.R c32 YL. _V-2 c32 _V2 < Y.R g+32 YL. _V-2 g+32 _V2 Y.R d+32 YL. _V-2 d+32 _V2 Y.R c32 YL. _V-2 c32 _V2 O2 V7 Y.R @3 EX a2 b2 g+2 a2 f+2 g+2 > c+2 < b2 a2 b2 g+2 a2 f+2 g+2 a2 b2 
!2  V7 O3 B8 @3 E90,100,80,8,14 a2~ b4~ a4~ g+4. e16 f+16 g+4~ a4~ f+2~ g+4~ d+4~ e1 V7 O1 @2 E100,0,0,11,0 YL. c+16 e16 a16 > c+16 < e16 a16 > c+16 e16 < a16 > c+16 e16 a16 c+16 e16 a16 > c+16 < L V5 O2 YLR B0 @1 EX e4. g+4. f+4 e4. c+4. d+4 e4. d+4. c+4 c+2 _V-3 c+4 _V3 e8 f+8 c+4 _V-3 c+8 _V3 c+4 _V-3 c+8 _V3 c+4 < b4 _V-3 b8 _V3 b4 _V-3 b8 _V3 g+4 a4. > c+4 _V-3 c+8 _V3 c+4 c2 d+2 c+2. < b8 > c+8 d+2 < f+2 > e2 d+2 c+2 < b2 > c+2. < b8 > c+8 d+4 ( d+8 ) r8 d+2 c+1 c1 e4. g+4. f+4 e4. c+4. d+4 e4. d+4. c+4 c+2 _V-3 c+4 _V3 e8 f+8 c+4 _V-3 c+8 _V3 c+4 _V-3 c+8 _V3 c+4 < b4 _V-3 b8 _V3 b4 _V-3 b8 _V3 g+4 a4. > c+4 _V-3 c+8 _V3 c+4 c2 d+2 c+2. < b8 > c+8 d+2 < f+2 > e2 d+2 c+2 < b2 > c+2. < b8 > c+8 d+4 ( d+8 ) r8 d+2 c+1 c1 O2 V7 YL. @3 EX c+2 d+2 < b2 > c+2 < a2 > c2 e2 f2 c+2 d+2 < b2 > c+2 < a2 > c2 c+2 d+2 
!3  V3 O1 @A2 YLR a16 YL. ( a16 ) > YLR c+16 Y.R ( c+16 ) YLR e16 YL. ( e16 ) YLR a16 Y.R ( a16 ) < YLR b16 YL. ( b16 ) > YLR d+16 Y.R ( d+16 ) YLR f+16 YL. ( f+16 ) YLR b16 Y.R ( b16 ) < YLR e16 YL. ( e16 ) YLR g+16 Y.R ( g+16 ) YLR b16 YL. ( b16 ) > YLR e16 Y.R ( e16 ) < YLR a16 YL. ( a16 ) > YLR c+16 Y.R ( c+16 ) YLR e16 YL. ( e16 ) YLR a16 Y.R ( a16 ) < YLR d+16 YL. ( d+16 ) YLR f+16 Y.R ( f+16 ) YLR a16 YL. ( a16 ) > YLR c+16 Y.R ( c+16 ) < YLR g+16 YL. ( g+16 ) > YLR c16 Y.R ( c16 ) YLR d+16 YL. ( d+16 ) YLR g+16 Y.R ( g+16 ) < YLR a1~ a1 L O1 `9F00 @A3 @B0 @~3 [ c+8 ]8 [ c8 ]8 < [ b8 ]8 [ a+8 ]8 [ a8 ]8 [ g+8 ]8 > [ d+8 ]8 < [ g+8 ]8 [ a8 ]8 [ b8 ]8 > [ e8 ]4 [ d+8 ]4 [ c+8 ]4 < [ b8 ]4 [ a8 ]8 [ b8 ]8 [ g+8 ]8 > [ g+8 ]8 [ c+8 ]8 [ c8 ]8 < [ b8 ]8 [ a+8 ]8 [ a8 ]8 [ g+8 ]8 > [ d+8 ]8 < [ g+8 ]8 [ a8 ]8 [ b8 ]8 > [ e8 ]4 [ d+8 ]4 [ c+8 ]4 < [ b8 ]4 [ a8 ]8 [ b8 ]8 [ g+8 ]8 > [ g+8 ]8 a2 b2 e2 a2 > d+2 < g+2 > c+2 c+2 < [ a8 ]4 [ b8 ]4 [ e8 ]4 [ a8 ]4 > [ d+8 ]4 < [ g+8 ]4 [ a8 ]4 [ b8 ]4 
!4  [ @7 x4 @5 x4 x4 x4 ]3 @8 x4 @7 x4 x4 x4 x4 x4 @11 x2 L @8 x4 [ @5 x16 @6 x16 @7 x16 @6 x16 ]3 [ [ @5 x16 @6 x16 @7 x16 @6 x16 ]4 ]3 @8 x4 [ @5 x16 @6 x16 @7 x16 @6 x16 ]3 [ @5 x16 @6 x16 @7 x16 @6 x16 ]4 @8 x4 [ @5 x16 @6 x16 @7 x16 @6 x16 ]3 [ @5 x16 @6 x16 @7 x16 @6 x16 ]4 @8 x4 [ @5 x16 @6 x16 @7 x16 @6 x16 ]3 [ [ @5 x16 @6 x16 @7 x16 @6 x16 ]4 ]3 @8 x4 [ @5 x16 @6 x16 @7 x16 @6 x16 ]3 [ @5 x16 @6 x16 @7 x16 @6 x16 ]4 @8 x4 [ @5 x16 @6 x16 @7 x16 @6 x16 ]3 [ @5 x16 @6 x16 @7 x16 @6 x16 ]4 @8 x4 [ @5 x16 @6 x16 @7 x16 @6 x16 ]3 [ [ @5 x16 @6 x16 @7 x16 @6 x16 ]4 ]3 @8 x4 [ @5 x16 @6 x16 @7 x16 @6 x16 ]3 [ @5 x16 @6 x16 @7 x16 @6 x16 ]4 @8 x4 [ @5 x16 @6 x16 @7 x16 @6 x16 ]3 [ @5 x16 @6 x16 @7 x16 @6 x16 ]4 @8 x4 [ @5 x16 @6 x16 @7 x16 @6 x16 ]3 [ [ @5 x16 @6 x16 @7 x16 @6 x16 ]4 ]3 @8 x4 [ @5 x16 @6 x16 @7 x16 @6 x16 ]3 [ @5 x16 @6 x16 @7 x16 @6 x16 ]4 @8 x4 [ @5 x16 @6 x16 @7 x16 @6 x16 ]3 [ @5 x16 @6 x16 @7 x16 @6 x16 ]4 [ Y.R @8 x2 YL. @8 x2 ]3 YLR @8 x2 @5 x8 x8 x8 @7 x8 @8 x4 [ @5 x16 @6 x16 @7 x16 @6 x16 ]3 Y.R @8 x4 YLR [ @5 x16 @6 x16 @7 x16 @6 x16 ]3 YL. @8 x4 YLR [ @5 x16 @6 x16 @7 x16 @6 x16 ]3 @8 x4 [ @5 x16 @6 x16 @7 x16 @6 x16 ]3 
!5  V1 O1 Y.R @49 W0,100,17 a8 c+8 e8 a8 b8 d+8 f+8 b8 g+8 < b8 > e8 g+8 a8 c+8 e8 a8 f+8 < a8 > c+8 f+8 g+8 c8 d+8 g+8 a1~ a4. ( a8 ) YLR @24 [ x16 ]8 L O1 YLR [ [ @24 x8 @0 x8 ]2 @24 x8 @0 x16 x16 @24 x8 @0 x8 ]7 [ @24 x8 @0 x8 ]2 @24 [ x16 ( x16 ) ]2 [ x16 ]4 [ [ @24 x8 @0 x8 ]2 @24 x16 @0 x8 x16 @24 x8 @0 x8 ]3 [ @24 x8 @0 x8 ]2 @24 x16 @0 x8 x16 @24 x16 @0 x16 @24 x16 x16 [ [ @24 x8 @0 x8 ]2 @24 x16 @0 x8 x16 @24 x8 @0 x8 ]3 [ @24 x8 @0 x8 ]2 @24 [ x16 x16 ]3 @2 Y.R g16 YL. d16 YLR [ [ @24 x8 @0 x8 ]2 @24 x8 @0 x16 x16 @24 x8 @0 x8 ]7 [ @24 x8 @0 x8 ]2 @24 [ x16 ( x16 ) ]4 [ [ @24 x8 @0 x8 ]2 @24 x16 @0 x8 x16 @24 x8 @0 x8 ]3 [ @24 x8 @0 x8 ]2 @24 x16 @0 x8 x16 @24 x16 @0 x16 @24 x16 x16 [ [ @24 x8 @0 x8 ]2 @24 x16 @0 x8 x16 @24 x8 @0 x8 ]3 [ @24 x8 @0 x8 ]2 @24 [ x16 x16 ]3 @2 Y.R g16 YL. d16 YLR YLR @0 x8 YL. @25 < a8 > c+8 e8 YLR @0 x8 Y.R @25 < b8 > d+8 f+8 YLR @0 x8 YL. @25 < g+8 b8 > e8 YLR @0 x8 Y.R @25 < a8 > c+8 e8 YLR @0 x8 YL. @25 < f+8 a8 > d+8 YLR @0 x8 Y.R @25 < g+8 > c8 d+8 YLR @0 x8 YL. @25 < g+8 > c+8 e8 YLR @24 [ x16 ]8 [ [ @24 x8 @0 x8 ]2 @24 x8 @0 x16 x16 @24 x8 @0 x8 ]3 [ @24 x8 @0 x8 ]2 @24 x16 x16 @2 Y.R b16 b16 YLR g16 g16 YL. d16 d16 YLR 
!6  V1 O1 YL. @49 W0,100,17 e8 < a8 > c+8 e8 f+8 < b8 > d+8 f+8 e8 < g+8 b8 > e8 e8 < a8 > c+8 e8 d+8 < f+8 a8 > d+8 d+8 < g+8 > c8 d+8 e1~ e4. ( e8 ) r2 L O2 YLR @49 W0,100,17 g+4. b4. a4 g+4. e4. f+4 g+4. f+4. e4 f+2 ( f+4 ) c+8 d+8 e4. f+4. e4 g+4. e4. < b4 > c+4. f+4. a4 g+2 f+2 e2. d+8 e8 f+2 < b2 > g+2 f+2 e2 d+2 e2. d+8 e8 f+4 ( f+8 ) r8 a2 g+1 ( g+4 ) < g+4 > d+4 g+4 g+4. b4. a4 g+4. e4. f+4 g+4. f+4. e4 f+2 ( f+4 ) c+8 d+8 e4. f+4. e4 g+4. e4. < b4 > c+4. f+4. a4 g+2 f+2 e2. d+8 e8 f+2 < b2 > g+2 f+2 e2 d+2 e2. d+8 e8 f+4 ( f+8 ) r8 a2 g+1 ( g+4 ) < g+4 > d+4 g+4 a8 c+8 e8 a8 b8 d+8 f+8 b8 g+8 < b8 > e8 g+8 a8 c+8 e8 a8 f+8 < a8 > c+8 f+8 g+8 c8 d+8 g+8 e8 < g+8 > c+8 e8 f8 c+8 f8 g+8 a8 c+8 e8 a8 b8 d+8 f+8 b8 g+8 < b8 > e8 g+8 a8 c+8 e8 a8 f+8 < a8 > c+8 f+8 g+8 c8 d+8 g+8 a8 c+8 e8 a8 b8 d+8 f+8 b8 
