;039 001F41EE
!1  T180 O3 @@1,2,1 V6 EP-4,0,0,2,0 E60,100,100,2,0 H-3 [ d12 < b12 g+12 > ]2 [ d+12 < a12 > ]3 [ d12 < b12 g+12 > ]2 [ c+12 < g12 > ]3 P15,10,6 > H0 c2 _V-2 P0,10,6 EX c2 _V-2 c2 
!2  O3 @@1,2,1 V8 EP-4,0,0,2,0 E60,100,100,2,0 [ d12 < b12 g+12 > ]2 [ d+12 < a12 > ]3 [ d12 < b12 g+12 > ]2 [ c+12 < g12 > ]3 < P15,10,6 > f+2 _V-4 P15,10,6 EX f+2 _V-2 f+2 
!3  V3 `9F00 B1 `2E63 @A3 `AE00 P6,7,12 E100,70,20,7,22 O1 [ V3 d12 V2 d12 d12 ]2 d+6 d+6 d+6 [ V3 d12 V2 d12 d12 ]2 c+6 c+6 c+6 < EX V3 a2 P0,7,12 V2 EX a2 V1 a2 
!4  [ [ @3 x12 @0 x12 x12 ]2 [ @3 x12 @0 x12 ]3 ]2 @8 x1 
!5  @8 O2 V1 [ d12 ]6 d+12 Y.R V0 d+12 V1 YLR d+12 YL. V0 d+12 V1 YLR d+12 Y.R V0 d+12 V1 YLR [ d12 ]6 c+12 Y.R V0 c+12 V1 YLR c+12 Y.R V0 c+12 V1 YLR c+12 Y.R V0 c+12 V1 YLR f+1 
!6  @4 O1 V1 g+6 V0 Y.R g+6 YL. g+6 YLR V1 a6 a6 a6 V1 g+6 V0 Y.R g+6 YL. g+6 YLR V1 g6 g6 g24 V0 g24 g24 g24 @8 f+4 @4 f+16 V0 [ f+16 ]11 V1 f+6 V0 Y.R f+6 YL. f+6 
